# xmcd
#
# Track frame offsets:
#	150
#	9912
#	23356
#	34013
#	44592
#	53975
#	64585
#	75276
#	86179
#	97147
#	108730
#	120903
#	132021
#	143710
#	154053
#	166565
#	176564
#	187237
#	196247
#	206973
#	217232
#	226982
#	239178
#	248686
#	258465
#	270115
#	280413
#	290713
#	302569
#	310342
#
# Disc length: 4243 seconds
#
# Revision: 0
# Processed by: cddbd v1.4PL0 Copyright (c) Steve Scherf et al.
# Submitted via: audiograbber 1.80.04
#
DISCID=ac10911e
DTITLE=Osborne Brothers - Bluegrass 1956-68
DYEAR=1900
DGENRE=
TTITLE0=Who Done It-
TTITLE1=Ruby Are You Mad-
TTITLE2=My Aching Heart
TTITLE3=Teardrops In My Eyes
TTITLE4=Wild Mountain Honey
TTITLE5=Downin The Willow Garden
TTITLE6=Ho Honey Yo
TTITLE7=Della Mae
TTITLE8=She'S No Angel
TTITLE9=(Is This) My Destiny
TTITLE10=Once More
TTITLE11=Two Lonely Hearts
TTITLE12=Lost Highway
TTITLE13=Love Pains
TTITLE14=It Hurts To Know
TTITLE15=If You Don'T Somebody Else Will
TTITLE16=Give This Message To Your Heart
TTITLE17=You'Ll Never Know (How Much It Hurts)
TTITLE18=I Love You Only
TTITLE19=It'S Just The Idea
TTITLE20=Lonely Lonely Me
TTITLE21=Sweethearts Again
TTITLE22=Blame Me
TTITLE23=Thers'S A Woman Behind Every Man
TTITLE24=Fair And Tender Ladies
TTITLE25=Each Season Changes You
TTITLE26=The Black Sheep Returned To The Fold
TTITLE27=At The First Fall Of Snow
TTITLE28=Old Hickory
TTITLE29=Old Joe Clark
EXTD=
EXTT0=
EXTT1=
EXTT2=
EXTT3=
EXTT4=
EXTT5=
EXTT6=
EXTT7=
EXTT8=
EXTT9=
EXTT10=
EXTT11=
EXTT12=
EXTT13=
EXTT14=
EXTT15=
EXTT16=
EXTT17=
EXTT18=
EXTT19=
EXTT20=
EXTT21=
EXTT22=
EXTT23=
EXTT24=
EXTT25=
EXTT26=
EXTT27=
EXTT28=
EXTT29=
PLAYORDER=
